<?xml version="1.0" encoding="UTF-8"?>
<svg width="1024px" height="1024px" viewBox="0 0 1024 1024" version="1.1" xmlns="http://www.w3.org/2000/svg" xmlns:xlink="http://www.w3.org/1999/xlink">
    <!-- Generator: Sketch 63.1 (92452) - https://sketch.com -->
    <title>工具icon/Tool_M/0049_xiai_hong</title>
    <desc>Created with Sketch.</desc>
    <defs>
        <linearGradient x1="0%" y1="6.8877551%" x2="100%" y2="93.1122449%" id="linearGradient-1">
            <stop stop-color="#FF7F7F" offset="0%"></stop>
            <stop stop-color="#E00000" offset="100%"></stop>
        </linearGradient>
    </defs>
    <g id="工具icon/Tool_M/0049_xiai_hong" stroke="none" stroke-width="1" fill="none" fill-rule="evenodd">
        <path d="M332.584149,128 C387.910938,128 443.248113,145.17786 489.96482,179.924443 C504.079538,190.427592 523.179588,190.6581 537.47087,180.415525 C642.193981,105.400189 788.253795,115.753007 881.780683,211.243471 C982.058541,314.240478 985.922172,480.436779 893.350806,587.993837 L887.787748,594.485645 L887.787748,594.485645 L542.96512,947.416012 C528.205425,962.524311 505.201238,964.027023 488.800215,951.931454 L483.598136,947.395968 L142.393769,597.715263 L133.492876,587.993837 L133.492876,587.993837 C37.9614692,480.446801 40.9215095,312.42648 142.393769,208.517462 C194.905923,154.738933 263.745036,128 332.584149,128 Z M394.034943,244.918639 C389.66512,229.096154 373.293818,219.807692 357.471333,224.177515 C296.842635,240.911243 246.361866,280.25 215.327842,334.955621 C184.283463,389.661243 176.413641,453.178994 193.147369,513.807692 C196.781984,526.97929 208.742043,535.62574 221.779025,535.62574 C224.388493,535.62574 227.060091,535.284024 229.721333,534.548817 C245.543818,530.178994 254.83228,513.807692 250.462457,497.985207 C224.637014,404.427515 279.736126,307.307692 373.293818,281.482249 C389.116304,277.112426 398.404765,260.741124 394.034943,244.918639 Z" id="形状" fill="url(#linearGradient-1)" fill-rule="nonzero"></path>
    </g>
</svg>